<svg xmlns="http://www.w3.org/2000/svg" width="210.36" height="251.29" viewBox="0 0 210.36 251.29">
	<style type="text/css">
		.st0{fill:#1f242d;fill-rule:evenodd;}
	</style>
	<path class="st0" d="M59.91,58C67.27,58 76.18,59.52 86.63,62.56C97.08,65.61 104.02,67.13 107.46,67.13C111.88,67.13 119.09,65.41 129.1,61.97C139.11,58.54 147.8,56.82 155.16,56.82C167.23,56.82 177.97,60.06 187.4,66.54C192.7,70.27 197.95,75.32 203.15,81.7C195.3,88.38 189.55,94.32 185.93,99.51C179.35,108.94 176.06,119.34 176.06,130.72C176.06,143.19 179.54,154.43 186.51,164.44C193.48,174.45 201.43,180.78 210.36,183.43C206.63,195.5 200.45,208.11 191.81,221.26C178.76,240.99 165.8,250.85 152.95,250.85C147.84,250.85 140.8,249.23 131.82,245.99C122.84,242.76 115.26,241.14 109.08,241.14C102.89,241.14 95.7,242.83 87.51,246.21C79.31,249.6 72.66,251.29 67.56,251.29C52.15,251.29 37.04,238.24 22.22,212.13C7.41,186.33 0,161 0,136.17C0,113.11 5.66,94.32 16.99,79.79C28.33,65.26 42.63,58 59.91,58"/>
	<path class="st0" d="M152.65,0C153.05,1.27 153.29,2.4 153.39,3.38C153.49,4.37 153.54,5.35 153.54,6.32C153.54,12.61 152.06,19.48 149.12,26.93C146.18,34.4 141.51,41.32 135.13,47.69C129.64,53.09 124.19,56.72 118.79,58.59C115.36,59.67 110.15,60.5 103.19,61.09C103.38,46.17 107.28,33.27 114.89,22.37C122.5,11.48 135.08,4.02 152.65,0"/>
</svg>