<svg xmlns="http://www.w3.org/2000/svg" width="695.05" height="442.8" viewBox="0 0 695.05 442.8">
	<style type="text/css">
		.st0{fill:#1f242d;fill-rule:evenodd;}
	</style>
	<path class="st0" d="M347.53,429.58C167.19,429.58 20.75,336.28 20.75,221.36C20.75,106.44 167.19,13.14 347.53,13.14C527.86,13.14 674.3,106.44 674.3,221.36C674.3,336.28 527.86,429.58 347.53,429.58M347.53,0C155.86,0 0,99.23 0,221.36C0,343.49 155.86,442.8 347.53,442.8C539.19,442.8 695.05,343.49 695.05,221.36C695.05,99.23 539.19,0 347.53,0"/>
	<path class="st0" d="M170.43,165.6L191.98,213.36L148.26,213.36ZM128.93,107.79L140.1,130.83L57.57,281.23L114.6,281.23L129.25,253.52L210.51,253.83L223.5,281.08L280.05,281.23L190.23,107.79ZM335.72,245.52C346.26,245.52 357.35,236.72 357.35,225.08L357.35,149.53L403.76,149.53L403.76,233.87C403.76,265.95 369.62,286.22 335.41,286.22C301.27,286.22 266.82,265.95 267.14,233.87L267.14,149.53L313.71,149.53L313.71,225.08C313.71,236.72 325.27,245.52 335.72,245.52M528.89,214.63C527.55,195.3 513.13,186.59 493.41,186.59C469.02,186.59 458.4,201.88 458.4,216.53C458.4,235.61 475.12,244.88 496.66,244.49C518.76,244.17 530,230.23 528.89,214.63M522.08,108.18C538.55,124.18 577.2,167.19 578.55,215.97C579.74,258.11 540.3,286.46 499.03,286.46C441.38,286.46 410.57,250.9 410.57,216.37C410.57,165.37 454.36,142.71 495.23,148.02L465.77,108.18ZM584.17 149.53L630.82 149.53L630.82 283.29L584.17 283.29ZM630.82,149.53"/>
</svg>