<svg xmlns="http://www.w3.org/2000/svg" width="302.49" height="53.74" viewBox="0 0 302.49 53.74">
	<style type="text/css">
		.st0{fill:#1f242d;}
	</style>
	<path class="st0" d="M90.14,26.16C91.39,25.11 91.8,23.52 91.89,21.91C91.91,21.66 91.91,21.4 91.91,21.15C91.91,18.52 89.78,13.32 82.97,13.32L75.49,13.32C73.61,13.32 71.93,14.77 71.93,16.51L71.93,37.37C71.94,38.09 72.2,38.81 72.69,39.38C73.3,40.08 74.24,40.55 75.5,40.55L83.8,40.55C85.85,40.55 87.57,40.14 88.97,39.39C91.24,38.2 92.61,36.13 92.99,33.55L92.99,33.55C93.07,33.06 93.11,32.54 93.11,32C93.11,29.41 91.83,27.27 90.14,26.16M78.68,19.71L82.37,19.71C84.14,19.71 85.22,20.4 85.22,21.73C85.22,21.79 85.22,21.85 85.21,21.9C85.13,23.36 84,23.92 82.69,23.92L78.68,23.92ZM85.74,33.55L85.74,33.55C85.27,34 84.57,34.18 83.83,34.18L78.68,34.18L78.68,29.88L83.51,29.88C85.26,29.88 86.35,30.64 86.35,32C86.35,32.7 86.12,33.22 85.74,33.55"/>
	<path class="st0" d="M50.47,0L20.33,0C17.31,0 14.99,1.65 14.99,4.83C14.99,8.01 17.61,9.78 20.59,9.78L51.21,9.78C53.84,9.78 55.2,11.08 55.2,12.74C55.2,14.55 54.24,15.81 52.11,15.81L5.03,15.81C1.96,15.81 0,18.09 0,20.64C0,21.06 0.04,21.49 0.13,21.9C0.57,23.88 2.06,25.49 4.78,25.49L51.55,25.49L53.53,25.42C53.76,25.4 53.99,25.36 54.22,25.33C56.67,25.04 59.26,23.88 61.27,21.91C63.39,19.83 64.86,16.84 64.86,13C64.86,4.89 58.3,0 50.47,0"/>
	<path class="st0" d="M234.09,13.21C232.27,13.21 230.52,14.41 230.52,16.76L230.52,36.93C230.52,37.96 230.85,38.78 231.37,39.39L231.38,39.39C232.06,40.15 233.05,40.55 234.07,40.55C235.1,40.55 236.1,40.15 236.78,39.39L236.78,39.38C237.32,38.78 237.65,37.96 237.65,36.93L237.65,16.76C237.65,14.41 235.91,13.21 234.09,13.21"/>
	<path class="st0" d="M223.91,34.18L216.34,34.18L216.34,30.06L223.71,30.06C225.91,30.06 227.09,28.81 227.09,26.87C227.09,24.93 225.91,23.68 223.71,23.68L216.34,23.68L216.34,19.71L223.91,19.71C226.06,19.71 227.54,18.54 227.54,16.52C227.54,14.57 226.07,13.33 223.91,13.33L212.73,13.33C210.96,13.33 209.21,14.28 209.21,16.51L209.21,37.37C209.21,38.23 209.48,38.9 209.9,39.39L209.9,39.39C210.58,40.2 211.68,40.56 212.76,40.56L223.91,40.55C225.16,40.55 226.18,40.14 226.82,39.4L226.83,39.4C227.28,38.88 227.54,38.18 227.54,37.37C227.54,35.35 226.06,34.18 223.91,34.18"/>
	<path class="st0" d="M279.32,33.56C281.67,32.45 282.79,29.97 282.79,26.72C282.79,24.75 282.35,23.11 281.47,21.9C280.43,20.49 278.79,19.69 276.53,19.69L273.48,19.69L273.48,34.19L276.23,34.19C277.43,34.19 278.46,33.97 279.32,33.56M288.41,33.56C287.11,36.28 285.02,38.25 282.52,39.39C280.83,40.17 278.95,40.57 277.01,40.57L269.86,40.57C268.8,40.57 267.69,40.21 267,39.39C266.58,38.9 266.31,38.23 266.31,37.38L266.31,16.52C266.31,14.28 268.15,13.32 269.86,13.32L277.01,13.32C283.31,13.32 287.47,17.05 289.1,21.9C289.61,23.42 289.87,25.05 289.87,26.72C289.87,29.34 289.34,31.65 288.41,33.56"/>
	<path class="st0" d="M159.32,34.17L151.75,34.17L151.75,30.05L159.12,30.05C161.32,30.05 162.5,28.8 162.5,26.86C162.5,24.92 161.32,23.67 159.12,23.67L151.75,23.67L151.75,19.7L159.32,19.7C161.47,19.7 162.94,18.53 162.94,16.51C162.94,14.56 161.48,13.32 159.32,13.32L148.13,13.32C146.37,13.32 144.62,14.26 144.62,16.5L144.62,37.36C144.62,38.22 144.88,38.89 145.3,39.39L145.31,39.39C145.99,40.19 147.09,40.55 148.18,40.55L159.32,40.55C160.58,40.55 161.6,40.12 162.24,39.39C162.69,38.87 162.94,38.17 162.94,37.36C162.94,35.34 161.47,34.17 159.32,34.17"/>
	<path class="st0" d="M137.64,13.21C135.73,13.21 134.12,14.48 134.12,16.86L134.12,28.7C134.12,31.16 133.65,32.79 132.52,33.56L132.51,33.56C132.02,33.89 131.39,34.06 130.63,34.06C129.87,34.06 129.25,33.89 128.76,33.56C127.62,32.8 127.16,31.17 127.16,28.7L127.16,16.86C127.16,14.47 125.43,13.21 123.53,13.21C121.6,13.21 120.03,14.49 120.03,16.86L120.03,28.7C120.03,30.48 120.26,32.11 120.71,33.56L120.72,33.56C121.54,36.18 123.08,38.2 125.27,39.39L125.27,39.4C126.77,40.22 128.58,40.67 130.66,40.67C132.75,40.67 134.54,40.22 136.02,39.39L136.04,39.39C138.21,38.2 139.72,36.18 140.53,33.56C140.98,32.12 141.2,30.48 141.2,28.7L141.2,16.86C141.2,14.48 139.56,13.21 137.64,13.21"/>
	<path class="st0" d="M203.24,19.7C205.39,19.7 206.87,18.53 206.87,16.51C206.87,14.56 205.4,13.32 203.24,13.32L192.06,13.32C190.29,13.32 188.55,14.26 188.55,16.5L188.55,37.36C188.55,38.22 188.81,38.89 189.24,39.39C189.92,40.19 191.02,40.55 192.09,40.55C193.26,40.55 194.35,40.19 195.01,39.39C195.43,38.9 195.68,38.23 195.68,37.37L195.68,30.05L203.05,30.05C205.25,30.05 206.42,28.8 206.42,26.86C206.42,24.91 205.25,23.67 203.05,23.67L195.68,23.67L195.68,19.7Z"/>
	<path class="st0" d="M62.72,33.55C60.63,30.52 57.32,28.77 54.22,28.4C53.99,28.37 53.76,28.33 53.53,28.32L51.55,28.24L4.78,28.24C1.49,28.24 0,30.61 0,33.1C0,33.26 0,33.42 0.02,33.57C0.24,35.92 2.15,37.93 5.03,37.93L52.11,37.93C53.53,37.93 54.43,38.49 54.87,39.39C55.09,39.86 55.19,40.4 55.19,40.99C55.19,42.66 53.84,43.96 51.2,43.96L20.59,43.96C19.11,43.96 17.72,44.38 16.7,45.22C15.65,46.06 14.99,47.3 14.99,48.91C14.99,49.71 15.14,50.43 15.41,51.04C16.22,52.82 18.08,53.74 20.33,53.74L50.47,53.74C53.93,53.74 57.14,52.78 59.64,51.03C61.67,49.6 63.24,47.64 64.11,45.22C64.59,43.86 64.86,42.36 64.86,40.73C64.86,40.27 64.84,39.82 64.8,39.39C64.58,37.1 63.82,35.14 62.72,33.55"/>
	<path class="st0" d="M104.5,29.23L108.81,29.23L106.67,23.64ZM118.7,39.38C118.13,40.12 117.21,40.55 116.22,40.55C114.9,40.55 114.01,40.11 113.34,39.39C112.86,38.89 112.5,38.26 112.16,37.55L110.92,35L102.52,35L101.23,37.55C101.02,37.98 100.83,38.36 100.64,38.7C100.5,38.95 100.35,39.18 100.19,39.39C100.11,39.49 100.03,39.57 99.95,39.66C99.39,40.24 98.67,40.55 97.58,40.55C96.62,40.55 95.58,40.13 94.89,39.39C94.23,38.67 93.91,37.67 94.29,36.47L95.35,33.89L95.49,33.56L100.5,21.9L101.86,18.74C102.13,18.04 102.38,17.35 102.64,16.72C102.9,16.09 103.18,15.48 103.52,14.97C104.22,13.91 105.17,13.21 106.67,13.21C108.11,13.21 109.07,13.92 109.78,14.97C110.13,15.47 110.43,16.07 110.7,16.72C110.97,17.35 111.23,18.03 111.5,18.74L112.87,21.9L117.92,33.56L118.05,33.88L118.56,35C118.81,35.57 119.1,36.26 119.17,36.5C119.49,37.66 119.26,38.66 118.7,39.38"/>
	<path class="st0" d="M179.08,21.9L179.08,21.8C179.08,20.49 178.15,19.7 176.23,19.7L172.88,19.7L172.88,23.92L176.23,23.92C178.12,23.92 179.03,23.25 179.08,21.9M166.69,39.39C166.23,38.84 165.95,38.07 165.95,37.09L165.95,16.67C165.95,14.46 167.8,13.32 169.49,13.32L176.49,13.32C181.97,13.32 185.62,16.67 185.62,21.9C185.6,25.53 183.34,27.74 180.35,28.56L183.97,33.55L184.69,34.56C185.4,35.51 186.02,36.48 186.02,37.38C186.02,38.09 185.77,38.81 185.29,39.39C184.71,40.09 183.79,40.56 182.56,40.55C181.15,40.54 180.45,40.1 179.81,39.39C179.68,39.24 179.56,39.09 179.42,38.92L175.43,33.55L173.05,30.36L173.05,37.05C173.05,38.04 172.77,38.82 172.29,39.39C171.63,40.18 170.61,40.57 169.49,40.57C168.38,40.57 167.35,40.19 166.69,39.39"/>
	<path class="st0" d="M262.19,39.38C262.66,38.7 262.84,37.81 262.83,36.94L262.83,16.74C262.83,14.38 261,13.21 259.26,13.21C257.51,13.21 255.72,14.41 255.72,16.76L255.72,26.61L252.33,21.9L248.47,16.53C246.69,14.08 245.93,13.21 244.25,13.21C242.42,13.21 241.14,14.54 241.14,16.8L241.14,36.94C241.14,37.96 241.48,38.78 242.01,39.39C242.71,40.15 243.7,40.55 244.68,40.55C245.67,40.55 246.68,40.15 247.38,39.39C247.92,38.79 248.28,37.97 248.28,36.94L248.28,27.19L252.91,33.55L255.54,37.17C256.22,38.13 256.75,38.87 257.27,39.4C258.04,40.21 258.74,40.55 259.76,40.55C260.92,40.55 261.7,40.07 262.19,39.38"/>
	<path class="st0" d="M297.07,10.67C300.06,10.67 302.49,13.09 302.49,16.1C302.49,19.09 300.06,21.52 297.07,21.52C294.07,21.52 291.64,19.09 291.64,16.1C291.64,13.09 294.07,10.67 297.07,10.67M297.07,20.62C299.48,20.62 301.5,18.59 301.5,16.1C301.5,13.59 299.48,11.57 297.07,11.57C294.65,11.57 292.63,13.59 292.63,16.1C292.63,18.59 294.65,20.62 297.07,20.62M295.93,18.8C295.93,19.15 295.76,19.42 295.47,19.42C295.19,19.42 295.02,19.15 295.02,18.8L295.02,13.29C295.02,13.13 295.09,13.03 295.31,13.03L297.42,13.03C298.88,13.03 299.59,13.62 299.59,14.8C299.59,15.94 298.86,16.42 298.08,16.52L299.41,18.58C299.51,18.74 299.59,18.88 299.59,19.05C299.59,19.22 299.44,19.42 299.15,19.42C298.97,19.42 298.79,19.33 298.63,19.06L297.09,16.56L295.93,16.56ZM295.93,15.84L297.03,15.84C297.9,15.84 298.69,15.78 298.69,14.76C298.69,13.92 297.97,13.75 297.27,13.75L295.93,13.75Z"/>
</svg>