<svg xmlns="http://www.w3.org/2000/svg" width="443.23" height="98.11" viewBox="0 0 443.23 98.11">
	<style type="text/css">
		.st0{fill:#1f242d;}
	</style>
	<path class="st0" d="M0,0L46.61,0C71.92,0 84.58,8.05 84.58,23.87C84.58,26.75 84.01,29.63 83.15,32.22C82,34.81 80.56,37.11 78.83,39.41C76.82,41.43 74.8,43.15 71.92,44.88C75.66,45.74 78.54,47.47 81.13,49.76C83.43,52.07 85.45,54.67 86.6,57.83C87.75,61 88.33,64.16 88.04,67.61C88.04,74.52 86.02,79.98 82.86,84.01C79.69,88.33 75.09,91.2 69.33,93.22C63.29,94.94 56.1,95.8 47.47,95.8L0,95.8ZM31.64,22.43L31.64,38.55L44.88,38.55C48.33,38.55 50.92,37.69 52.65,35.96C54.37,34.23 55.24,32.22 55.24,29.92C55.24,27.04 54.37,25.32 52.94,24.16C51.5,23.01 48.33,22.43 43.73,22.43ZM31.64,55.81L31.64,73.37L46.03,73.37C54.66,73.37 58.98,70.77 58.98,65.02C58.69,61.28 57.54,58.69 55.24,57.53C52.94,56.38 48.33,55.81 41.43,55.81Z"/>
	<path class="st0" d="M141.84,74.8L168.31,74.8C167.16,80.84 163.13,86.32 156.8,90.92C150.47,95.52 141.55,98.11 130.05,98.11C117.96,98.11 108.17,94.65 100.98,88.03C93.79,81.13 90.05,72.5 90.05,61.57C90.05,55.24 91.77,49.19 94.65,43.44C97.53,37.69 102.13,33.08 108.17,29.34C114.22,25.89 121.41,24.16 129.76,24.16C139.83,24.16 147.88,26.46 154.21,31.07C160.25,35.38 164.86,41.14 167.45,47.76C169.75,54.37 171.19,61 170.9,67.32L117.67,67.32C117.67,71.64 119.11,74.8 121.99,77.11C124.87,79.69 128.03,80.84 131.48,81.13C136.38,81.13 139.83,78.83 141.84,74.8M117.67,52.93L143.28,52.93C142.99,49.49 141.55,46.6 138.96,44.3C136.66,42.29 133.79,41.14 130.62,41.14C126.59,41.14 123.43,42 121.13,44.3C118.83,46.32 117.67,49.19 117.67,52.93"/>
	<path class="st0" d="M174.93,26.18L199.96,26.18L199.96,37.11C206,28.48 214.06,24.16 223.55,24.16C231.61,24.16 238.23,26.46 243.12,31.07C248.3,35.67 250.6,43.15 250.6,53.8L250.6,95.81L222.98,95.81L222.98,58.69C222.98,50.06 219.81,45.74 213.2,46.03C209.74,46.03 206.87,46.89 205.14,49.2C203.41,51.21 202.55,54.96 202.55,60.13L202.55,95.81L174.93,95.81Z"/>
	<path class="st0" d="M303.54,52.93C303.26,49.49 302.39,47.18 300.66,45.45C298.65,43.73 296.35,42.58 293.48,42.58C289.44,42.58 286.27,44.31 284.26,47.18C282.24,50.35 281.39,54.95 281.1,61.28C281.1,66.75 282.24,71.06 284.26,74.52C286.27,77.68 289.44,79.41 293.76,79.41C299.8,79.12 303.26,75.66 304.12,69.04L332.31,69.04C331.16,78.54 327.13,85.74 320.23,90.63C313.32,95.52 304.4,97.82 293.48,97.82C280.52,97.82 270.74,94.66 263.84,87.46C256.93,80.56 253.47,72.21 253.47,62.15C253.76,56.97 254.35,52.07 256.07,47.75C257.51,43.44 259.8,39.41 262.97,35.67C266.14,31.93 270.45,29.34 275.63,27.33C280.52,25.03 286.85,24.16 293.76,24.16C304.69,24.16 313.32,26.75 320.23,31.65C327.13,36.54 330.87,43.73 331.45,52.93Z"/>
	<path class="st0" d="M335.48,0L362.81,0L362.81,34.81C368.85,27.61 375.76,24.16 384.1,24.16C393.31,24.16 400.21,26.75 404.53,31.93C409.13,37.4 411.15,44.3 411.15,53.22L411.15,95.8L383.53,95.8L383.53,59.55C383.53,50.64 380.08,46.03 373.46,46.03C366.56,46.03 362.81,50.64 362.81,59.84L362.81,95.8L335.48,95.8Z"/>
	<path class="st0" d="M443.23 -29.81L415.72 -29.81L415.72 -2.3L443.23 -2.3Z"/>
</svg>