<svg xmlns="http://www.w3.org/2000/svg" width="773.23" height="287.16" viewBox="0 0 773.23 287.16">
	<style type="text/css">
		.st0{fill:#1f242d;fill-rule:evenodd;}
	</style>
	<path class="st0" d="M680.4,192.29C679.45,192.92 680.72,231.26 680.72,260.4C680.72,264.52 682.93,268.01 688.64,268.01L737.74,268.01C743.13,268.01 744.4,263.57 744.4,260.08C745.03,233.8 745.35,193.24 745.03,192.6L772.9,192.6C772.9,192.6 773.22,241.39 773.22,267.37C773.54,279.09 764.04,286.7 749.78,287.02C722.85,287.33 709.55,287.02 685.15,287.02C667.73,287.02 652.53,282.26 652.21,267.37C651.89,237.91 651.89,192.92 652.21,192.29ZM552.73,257.87L603.73,257.87C611.02,257.55 616.72,265.15 616.72,271.81L616.72,287.02L642.07,287.02L642.07,272.44C642.07,258.5 627.81,250.58 627.49,250.58C628.13,250.58 641.75,241.39 641.75,226.19C641.75,208.44 634.46,192.6 608.49,192.6L524.22,192.6L524.22,287.02L552.73,287.02ZM604.37,211.62C611.65,211.62 616.09,220.17 616.09,226.83C616.09,233.48 611.34,240.45 604.37,240.45C584.09,240.45 553.05,240.76 552.73,240.45L552.73,211.62C553.37,211.3 585.99,211.62 604.37,211.62M447.55,213.51L428.86,247.42L467.19,247.42ZM430.76,192.6L465.29,192.6L516.3,287.02L488.42,287.02L478.28,268.01L418.72,268.01L408.27,287.02L379.76,287.02ZM343.33,268.01C349.03,268.01 354.42,264.83 354.42,257.87C354.42,251.21 349.03,246.78 343.01,247.1C325.59,247.42 290.74,247.1 290.11,247.42L290.11,268.01C290.74,268.33 320.83,268.01 343.33,268.01M343.01,231.58C348.4,231.58 352.83,228.41 352.83,221.44C352.83,215.1 347.76,211.62 342.06,211.62C323.37,211.62 290.74,211.3 290.11,211.62L290.11,231.58C290.74,231.89 322.74,231.58 343.01,231.58M349.98,192.6C376.28,192.6 378.81,211.62 378.81,217.32C378.81,232.84 365.82,239.49 365.19,239.49C365.5,239.49 380.71,245.2 380.71,260.4C380.71,268.95 379.44,286.7 349.98,287.02C316.4,287.33 262.22,287.02 261.91,287.02L261.91,192.6ZM158.63,192.29C158,192.92 158.63,231.26 158.63,260.4C158.63,264.52 161.17,268.01 166.55,268.01L216.29,268.01C221.67,268.01 222.94,263.57 222.94,260.08C223.26,233.8 223.26,193.24 222.94,192.6L251.14,192.6C251.14,192.6 251.46,241.39 251.77,267.37C251.77,279.09 241.95,286.7 227.7,287.02C201.08,287.33 187.78,287.02 163.07,287.02C145.65,287.02 130.75,281.95 130.75,267.37C130.44,237.91 129.8,192.92 130.12,192.29ZM97.49,189.12C122.2,189.12 119.03,215.41 119.67,216.37L94.01,216.37C94.01,216.37 94.01,208.44 86.72,208.44L35.08,208.44C24.63,208.44 24.63,226.19 34.13,226.83C50.92,227.45 78.48,227.45 100.97,228.41C111.75,229.04 120.93,236.01 120.93,247.42C120.93,248.05 121.25,267.37 121.25,267.37C121.57,280.67 110.16,287.02 98.76,287.02L24.63,287.02C12.27,287.02 2.13,277.83 0.23,265.79C-0.07,262.62 -0.07,260.08 0.23,256.92L26.21,256.92C26.21,256.92 25.58,268.01 36.67,268.01C56.31,268.01 67.39,268.33 85.13,268.01C98.44,267.69 100.66,248.36 85.13,247.42C66.44,246.78 52.19,246.14 28.74,245.2C12.9,244.88 1.19,238.55 1.19,225.87L1.19,205.92C1.19,196.73 10.05,189.12 22.41,189.12Z"/>
	<path class="st0" d="M298.66,24.39C323.69,9.82 356.95,0 393.38,0C429.81,0 463.39,9.82 488.42,24.39C514.4,39.59 530.87,60.5 530.87,82.05C530.87,102.95 514.4,123.86 488.42,139.07C463.71,153.64 429.81,163.15 393.38,163.15C356.95,163.15 323.37,153.64 298.66,139.07C272.68,123.86 256.52,102.95 256.52,82.05C256.52,60.82 273,39.59 298.66,24.39M393.38,4.11C357.9,4.11 324.96,13.62 300.88,27.87C276.17,42.44 260.64,62.08 260.64,82.05C260.64,101.69 276.17,121.01 300.56,135.58C324.96,149.84 357.58,159.03 393.38,159.03C429.18,159.03 462.12,149.84 486.52,135.58C511.23,121.01 526.76,101.69 526.76,82.05C526.76,62.08 511.23,42.44 486.2,27.87C462.12,13.62 429.18,4.11 393.38,4.11"/>
	<path class="st0" d="M356.31,52.26L418.09,65.89L356.95,78.56L343.65,112.14L330.34,77.92L273.95,65.89L330.34,53.85L343.01,21.54Z"/>
	<path class="st0" d="M424.11,83.95L450.4,89.33L424.11,95.35L418.72,109.29L412.71,94.72L388.63,89.33L412.71,83.95L418.09,70.64Z"/>
	<path class="st0" d="M487.79,83.95L514.08,89.33L487.79,95.35L482.4,109.29L476.38,94.72L452.94,89.33L476.38,83.95L482.4,70.64Z"/>
	<path class="st0" d="M470.99,44.35L497.29,49.73L470.99,55.12L465.61,69.69L459.59,55.12L435.51,49.73L459.59,44.35L464.98,31.04Z"/>
	<path class="st0" d="M446.29,115.31L473.22,121.33L446.92,126.71L440.9,140.97L434.88,126.71L411.44,121.33L434.88,115.94L440.9,102.64Z"/>
	<path class="st0" d="M377.22,120.06L403.2,126.08L377.22,131.46L371.84,145.72L365.82,130.83L341.74,126.08L365.82,120.69L371.2,106.76Z"/>
</svg>