<svg xmlns="http://www.w3.org/2000/svg" width="303.71" height="52.34" viewBox="0 0 303.71 52.34">
	<style type="text/css">
		.st0{fill:#1f242d;}
	</style>
	<path class="st0" d="M92.53,11.84L133.43,11.84L133.43,18.22L118.09,18.22L118.09,47.98L107.51,47.98L107.51,18.22L92.53,18.22Z"/>
	<path class="st0" d="M146.34 -40.49L135.76 -40.49L135.76 -4.35L146.34 -4.35Z"/>
	<path class="st0" d="M152.92,11.84L163.5,11.84L163.5,39.02C163.5,41.65 165.98,41.6 168.2,41.6L181.97,41.6L181.97,47.98L164.41,47.98C158.43,47.98 152.92,46.51 152.92,41Z"/>
	<path class="st0" d="M251.88,11.89L239.88,11.89L222.92,44.69L214.88,33.81C217.96,33.15 223.73,32.09 223.73,23.13C223.73,14.47 217.3,11.89 208.6,11.89L184.4,11.89L184.4,48.03L194.98,48.03L194.98,34.37L204.3,34.37L213.46,48.03L232.54,48.03L236.54,40.04L254.66,40.04L258.61,48.03L269.9,48.03ZM207.64,28.19L195.08,28.19L195.08,17.96L207.64,17.96C210.98,17.96 213.1,18.98 213.1,23.08C213.05,27.53 211.23,28.19 207.64,28.19M239.32,33.86L245.96,20.9L252.13,33.86Z"/>
	<path class="st0" d="M269.54,11.84L280.33,29.2L292.22,11.84L303.71,11.84L285.49,36.8L285.49,47.98L274.91,47.98L274.91,36.8L258.05,11.84Z"/>
	<path class="st0" d="M46.92,26.92L67.42,14.07L58.46,2.17L45.55,25.96C46.06,26.27 46.51,26.57 46.92,26.92"/>
	<path class="st0" d="M50.36,31.78L78.2,28.34L69.29,16.5L49.65,30.16C49.91,30.67 50.16,31.23 50.36,31.78"/>
	<path class="st0" d="M50.61,37.66L91.57,46.06L80.23,31.03L50.87,35.83C50.82,36.49 50.72,37.05 50.61,37.66"/>
	<path class="st0" d="M93.49,48.84C80.89,47.02 53.45,43.07 47.27,41.91C40.95,40.74 37.35,38.01 37.35,32.54C37.35,29.66 38.87,27.94 40.59,25.25C46.36,16.19 56.84,0 56.84,0L45.45,0L0,52.34L96.12,52.34Z"/>
	<path class="st0" d="M297.03,43.93C297.03,46.36 295.11,48.34 292.63,48.34C290.15,48.34 288.17,46.41 288.17,43.93C288.17,41.55 290.15,39.63 292.63,39.63C295.11,39.63 297.03,41.55 297.03,43.93M289.29,43.93C289.29,45.86 290.7,47.37 292.68,47.37C294.55,47.37 295.97,45.86 295.97,43.93C295.97,42.01 294.55,40.44 292.63,40.44C290.7,40.49 289.29,42.06 289.29,43.93M291.92,46.21L290.91,46.21L290.91,41.91C291.31,41.81 291.87,41.76 292.58,41.76C293.39,41.76 293.74,41.91 294.1,42.06C294.35,42.26 294.5,42.62 294.5,43.02C294.5,43.48 294.15,43.88 293.59,44.03L293.59,44.08C293.99,44.24 294.25,44.54 294.4,45.15C294.55,45.81 294.6,46.06 294.7,46.21L293.64,46.21C293.49,46.06 293.44,45.65 293.29,45.15C293.18,44.69 292.93,44.44 292.38,44.44L291.92,44.44ZM291.97,43.78L292.43,43.78C292.98,43.78 293.44,43.58 293.44,43.17C293.44,42.77 293.13,42.52 292.53,42.52L291.97,42.57Z"/>
</svg>