<svg xmlns="http://www.w3.org/2000/svg" width="18.09" height="32.09" viewBox="0 0 18.09 32.09">
	<style type="text/css">
		.st0{fill:#f2f1ef;}
	</style>
	<path class="st0" d="M8.52,28.35L8.52,0L7.56,0C7.56,0 7.5,7.79 0,9.1L0,10.05L4,10.05L4,27.34C4,30.48 6.07,32.07 10.16,32.07L10.21,32.07L10.21,30.94C9.02,30.81 8.52,30.15 8.52,28.35"/>
	<path class="st0" d="M15.47,26.94C14.03,26.94 12.9,28.07 12.9,29.52C12.9,30.93 14.05,32.09 15.47,32.09C16.91,32.09 18.09,30.93 18.09,29.52C18.09,28.07 16.94,26.94 15.47,26.94"/>
</svg>