<svg xmlns="http://www.w3.org/2000/svg" width="107.73" height="45.69" viewBox="0 0 107.73 45.69">
	<style type="text/css">
		.st0{fill:#f2f1ef;}
	</style>
	<path class="st0" d="M62.8,9.09L62.74,9.09L62.74,10.04C63.65,10.17 65.19,10.79 65.19,13.6L65.19,31.79L69.71,31.79L69.71,14.98C69.71,11.29 67.13,9.09 62.8,9.09"/>
	<path class="st0" d="M23.72,9.08L33.83,31.78L35.13,31.78L36.95,27.68L28.67,9.08Z"/>
	<path class="st0" d="M11.74,9.08L21.84,31.78L23.14,31.78L24.97,27.68L16.69,9.08Z"/>
	<path class="st0" d="M105.1,26.94C103.66,26.94 102.53,28.07 102.53,29.52C102.53,30.94 103.68,32.09 105.1,32.09C106.55,32.09 107.73,30.94 107.73,29.52C107.73,28.07 106.58,26.94 105.1,26.94"/>
	<path class="st0" d="M83.36,9.08L93.47,31.78L94.77,31.78L96.59,27.68L88.31,9.08Z"/>
	<path class="st0" d="M80.14,28.37L80.14,0L79.19,0C79.19,0 79.13,7.79 71.62,9.1L71.62,10.06L75.63,10.06L75.63,27.36C75.63,30.5 77.7,32.09 81.79,32.09L81.84,32.09L81.84,30.97C80.65,30.83 80.14,30.17 80.14,28.37"/>
	<path class="st0" d="M107.3,10.06L107.3,9.09L98.57,9.09L98.57,10.06C101.98,10.41 101.66,12.59 101.39,13.6C101.37,13.69 101.29,13.97 101.28,14.01L101.28,14.01L101.29,14.01L101.93,15.48L102.77,13.6C103.32,12.34 104.15,10.47 107.3,10.06"/>
	<path class="st0" d="M39.03,10.06C42.45,10.41 42.12,12.59 41.86,13.6C41.84,13.69 41.76,13.97 41.75,14.01L41.75,14.01L41.75,14.01L42.4,15.48L43.24,13.6C43.79,12.34 44.61,10.47 47.76,10.06L47.76,9.09L39.03,9.09Z"/>
	<path class="st0" d="M50.95,31.83L55.47,31.83L55.47,12.81L55.47,12.81C55.47,11.01 55.98,10.18 57.17,10.05L57.17,9.09L50.95,9.09Z"/>
	<path class="st0" d="M88.06,42.6C87.87,42.6 87.79,42.52 87.56,42.05C87.27,41.44 86.82,40.54 85.35,40.54C84.03,40.54 82.96,41.61 82.96,42.93C82.96,44.5 84.19,45.69 85.83,45.69C87.98,45.69 89.49,43.98 90.47,41.38L89.17,41.38C88.74,42.2 88.37,42.6 88.06,42.6"/>
	<path class="st0" d="M8.52,28.37L8.52,0L7.56,0C7.56,0 7.51,7.79 0,9.1L0,10.06L4,10.06L4,27.36C4,30.5 6.07,32.09 10.16,32.09L10.22,32.09L10.22,30.97C9.03,30.83 8.52,30.17 8.52,28.37"/>
</svg>